<svg t="1726051011122" class="icon" viewBox="0 0 1024 1024" version="1.1" xmlns="http://www.w3.org/2000/svg" p-id="28593" data-spm-anchor-id="a313x.search_index.0.i22.3f2a3a81yDsyEm" width="200" height="200"><path d="M166.4 674.645333l410.282667 75.989334L379.648 938.666667l-213.290667-264.021334z m463.402667 85.845334l252.373333 2.816-408.533333 157.525333 156.16-160.341333z m308.181333-393.386667l-50.304 355.114667-234.325333-10.837334 157.141333-310.528 127.488-33.749333zM326.698667 323.285333l253.354666 388.906667-408.874666-75.52 155.52-313.386667zM378.197333 85.333333l387.072 300.373334-147.328 319.317333L350.762667 251.733333 378.197333 85.333333z m-30.72 7.04l-35.328 157.824-165.674666 347.434667L128 356.992l219.52-264.618667zM435.413333 85.333333l492.8 241.152-122.538666 22.954667L435.370667 85.333333z" p-id="28594" data-spm-anchor-id="a313x.search_index.0.i18.3f2a3a81yDsyEm" class="" fill="#4460f1"></path></svg>