<svg t="1726049459069" class="icon" viewBox="0 0 1024 1024" version="1.1" xmlns="http://www.w3.org/2000/svg" p-id="15290" width="200" height="200"><path d="M170.666667 170.666667m64 0l170.666666 0q64 0 64 64l0 170.666666q0 64-64 64l-170.666666 0q-64 0-64-64l0-170.666666q0-64 64-64Z" fill="#3699FF" p-id="15291"></path><path d="M234.666667 554.666667h170.666666a64 64 0 0 1 64 64v170.666666A64 64 0 0 1 405.333333 853.333333h-170.666666A64 64 0 0 1 170.666667 789.333333v-170.666666A64 64 0 0 1 234.666667 554.666667z m384-384h170.666666A64 64 0 0 1 853.333333 234.666667v170.666666a64 64 0 0 1-64 64h-170.666666A64 64 0 0 1 554.666667 405.333333v-170.666666A64 64 0 0 1 618.666667 170.666667z m0 384h170.666666a64 64 0 0 1 64 64v170.666666a64 64 0 0 1-64 64h-170.666666a64 64 0 0 1-64-64v-170.666666a64 64 0 0 1 64-64z" fill="#3699FF" opacity=".3" p-id="15292"></path></svg>