<svg t="1726049600096" class="icon" viewBox="0 0 1024 1024" version="1.1" xmlns="http://www.w3.org/2000/svg" p-id="17499" width="200" height="200"><path d="M193.75616 636.54912v179.91168c0 33.85856 27.44832 61.30688 61.30688 61.30688h287.67744a30.65344 30.65344 0 1 0 0-61.30688H267.32544a12.2624 12.2624 0 0 1-12.2624-12.25728v-195.34336a30.64832 30.64832 0 0 0-27.5456-30.49472l-27.5456-2.80576c-41.54368-4.23424-67.20512-35.5072-67.20512-65.88416 0-30.37184 25.66144-61.6448 67.20512-65.87904l27.5456-2.80576a30.65344 30.65344 0 0 0 27.5456-30.49472V212.6848a12.2624 12.2624 0 0 1 12.2624-12.2624h121.73824c22.54336 57.55904 76.01664 100.81792 143.32416 100.81792 67.3024 0 120.77568-43.264 143.31904-100.8128h121.8304a12.25728 12.25728 0 0 1 12.25728 12.25728v182.30784a30.65344 30.65344 0 0 0 61.30688 0V200.4224c0-33.85344-27.44832-61.30176-61.30688-61.30176h-153.1392c-16.93184 0-30.19776 13.99808-34.93888 30.24896-11.93472 40.90368-47.41632 70.56896-89.32864 70.56896-41.91744 0-77.39904-29.66528-89.32864-70.56896-4.74112-16.25088-18.01216-30.24896-34.93888-30.24896H255.06304c-33.85856 0-61.30688 27.4432-61.30688 61.30176v182.38464c-68.78208 7.00416-122.29632 61.1328-122.29632 126.8736 0 65.73056 53.51424 119.8592 122.29632 126.86848z" fill="#0265FF" p-id="17500"></path><path d="M800.69632 504.18176a30.64832 30.64832 0 1 0-43.34592 43.34592l105.2416 105.24672-302.47424 0.06144a30.65344 30.65344 0 0 0 0.01536 61.30688l302.42816-0.06656-105.21088 105.21088a30.65344 30.65344 0 0 0 43.34592 43.35104l157.55776-157.55264a30.65344 30.65344 0 0 0 0-43.35104l-157.55776-157.55264z" fill="#0265FF" p-id="17501"></path></svg>